<svg id="ServiceNow" xmlns="http://www.w3.org/2000/svg" viewBox="0 0 32 32"><path style="fill:none;stroke-width:0" d="M0 0h32v32H0z"/><path style="fill:#022d42;stroke-width:0" d="M0 0h32v32H0z"/><path d="M16.071 5C9.496 4.962 4.057 10.342 4.002 16.942a12.037 12.037 0 0 0 3.769 8.866 2.38 2.38 0 0 0 3.094.163c1.366-1.066 3.12-1.702 5.136-1.702s3.77.636 5.136 1.702c.932.727 2.255.634 3.112-.181A12.032 12.032 0 0 0 28 17.043c0-6.627-5.335-12.006-11.929-12.044m-.07 18.067c-3.562 0-5.999-2.682-5.999-5.999s2.438-6.045 5.999-6.045S22 13.749 22 17.067s-2.436 5.999-5.999 5.999" style="fill:#62d84e;fill-rule:evenodd;stroke-width:0"/></svg>